<svg id="barcode" width="112px" height="140px" x="0px" y="0px" viewBox="0 0 112 140" xmlns="http://www.w3.org/2000/svg" version="1.1" style="transform: translate(0,0)"><rect x="0" y="0" width="112" height="140" style="fill:#ffffff;"/><g transform="translate(10, 10)" style="fill:#000000;"><rect x="0" y="0" width="4" height="100"/><rect x="6" y="0" width="2" height="100"/><rect x="12" y="0" width="2" height="100"/><rect x="22" y="0" width="4" height="100"/><rect x="30" y="0" width="2" height="100"/><rect x="36" y="0" width="6" height="100"/><rect x="44" y="0" width="4" height="100"/><rect x="50" y="0" width="6" height="100"/><rect x="60" y="0" width="2" height="100"/><rect x="66" y="0" width="4" height="100"/><rect x="76" y="0" width="6" height="100"/><rect x="84" y="0" width="2" height="100"/><rect x="88" y="0" width="4" height="100"/><text style="font: 18px monospace" text-anchor="middle" x="46" y="120">4</text></g></svg>